HIERARCHY
ROOT Hips
{
	OFFSET 52.563301 16.275990 56.061104
	CHANNELS 6 Xposition Yposition Zposition Xrotation Yrotation Zrotation
	JOINT spine
	{
		OFFSET 0.000000 -0.458068 7.965675
		CHANNELS 3 Xrotation Yrotation Zrotation
		JOINT spine1
		{
			OFFSET 0.000000 -0.000002 10.243103
			CHANNELS 3 Xrotation Yrotation Zrotation
			JOINT spine2
			{
				OFFSET 0.000000 -0.000001 9.814751
				CHANNELS 3 Xrotation Yrotation Zrotation
				JOINT Neck
				{
					OFFSET 0.000000 -1.201385 25.198601
					CHANNELS 3 Xrotation Yrotation Zrotation
					JOINT Head
					{
						OFFSET 0.000000 -0.000001 7.613152
						CHANNELS 3 Xrotation Yrotation Zrotation
						End Site
						{
							OFFSET 0.000000 6.077326 18.428108
						}
					}
				}
				JOINT RightShoulder
				{
					OFFSET -4.132698 0.575449 10.599197
					CHANNELS 3 Xrotation Yrotation Zrotation
					JOINT RightArm
					{
						OFFSET 0.000000 -0.000002 13.901802
						CHANNELS 3 Xrotation Yrotation Zrotation
						JOINT RightArmRoll
						{
							OFFSET 0.000000 -0.000002 7.017883
							CHANNELS 3 Xrotation Yrotation Zrotation
							JOINT RightForeArm
							{
								OFFSET 0.000000 -0.000004 20.440598
								CHANNELS 3 Xrotation Yrotation Zrotation
								JOINT RightForeArmRoll
								{
									OFFSET 0.000000 0.000000 7.875168
									CHANNELS 3 Xrotation Yrotation Zrotation
									JOINT RightHand
									{
										OFFSET 0.000000 -0.000004 15.803696
										CHANNELS 3 Xrotation Yrotation Zrotation
										End Site
										{
											OFFSET 0.000000 0.000000 0.100006
										}
									}
								}
							}
						}
					}
				}
				JOINT LeftShoulder
				{
					OFFSET 4.132698 0.575449 10.599197
					CHANNELS 3 Xrotation Yrotation Zrotation
					JOINT LeftArm
					{
						OFFSET 0.000000 -0.000002 13.901802
						CHANNELS 3 Xrotation Yrotation Zrotation
						JOINT LeftArmRoll
						{
							OFFSET 0.000000 -0.000002 7.017891
							CHANNELS 3 Xrotation Yrotation Zrotation
							JOINT LeftForeArm
							{
								OFFSET 0.000000 -0.000004 20.440605
								CHANNELS 3 Xrotation Yrotation Zrotation
								JOINT LeftForeArmRoll
								{
									OFFSET 0.000000 0.000000 7.875153
									CHANNELS 3 Xrotation Yrotation Zrotation
									JOINT LeftHand
									{
										OFFSET 0.000000 -0.000004 15.803696
										CHANNELS 3 Xrotation Yrotation Zrotation
										End Site
										{
											OFFSET 0.000000 0.000000 0.100006
										}
									}
								}
							}
						}
					}
				}
			}
		}
	}
	JOINT RightUpLeg
	{
		OFFSET -7.060478 1.086100 -1.294701
		CHANNELS 3 Xrotation Yrotation Zrotation
		JOINT RightUpLegRoll
		{
			OFFSET 0.000000 -0.000002 18.530792
			CHANNELS 3 Xrotation Yrotation Zrotation
			JOINT RightLeg
			{
				OFFSET 0.000000 0.000004 -22.947598
				CHANNELS 3 Xrotation Yrotation Zrotation
				JOINT RightLegRoll
				{
					OFFSET 0.000000 -0.000004 23.022594
					CHANNELS 3 Xrotation Yrotation Zrotation
					JOINT RightFoot
					{
						OFFSET 0.000000 -0.000004 19.162498
						CHANNELS 3 Xrotation Yrotation Zrotation
						JOINT RightToeBase
						{
							OFFSET 0.000000 -0.000002 16.018799
							CHANNELS 3 Xrotation Yrotation Zrotation
							End Site
							{
								OFFSET 0.006790 0.894203 7.757820
							}
						}
					}
				}
			}
		}
	}
	JOINT LeftUpLeg
	{
		OFFSET 7.060478 1.086100 -1.294701
		CHANNELS 3 Xrotation Yrotation Zrotation
		JOINT LeftUpLegRoll
		{
			OFFSET 0.000000 -0.000002 18.530899
			CHANNELS 3 Xrotation Yrotation Zrotation
			JOINT LeftLeg
			{
				OFFSET 0.000000 -0.000004 22.947502
				CHANNELS 3 Xrotation Yrotation Zrotation
				JOINT LeftLegRoll
				{
					OFFSET 0.000000 -0.000004 23.235497
					CHANNELS 3 Xrotation Yrotation Zrotation
					JOINT LeftFoot
					{
						OFFSET 0.000000 -0.000004 18.949600
						CHANNELS 3 Xrotation Yrotation Zrotation
						JOINT LeftToeBase
						{
							OFFSET 0.000000 -0.000002 16.018799
							CHANNELS 3 Xrotation Yrotation Zrotation
							End Site
							{
								OFFSET -0.030430 0.894203 7.757812
							}
						}
					}
				}
			}
		}
	}
}
MOTION
Frames: 10
Frame Time: 0.041667
52.706604 10.358489 59.170002 18.128311 -2.432921 7.597659 1.283771 0.903117 -0.035282 6.571841 1.803897 -0.099572 8.217265 1.802574 -0.121183 -1.389400 -5.975337 -3.571915 4.256441 1.997530 -2.892877 -8.069745 -63.922251 -9.877733 -48.009618 -109.360959 -78.031892 0.000000 -0.000005 -0.000001 75.993265 -5.325078 -0.530820 0.000001 0.000006 -3.006348 -5.000170 -7.999830 0.000030 -0.465448 55.752621 0.183628 -63.268999 119.813266 100.590791 0.000000 -0.000001 0.000002 75.447697 9.433182 -1.399985 -0.000001 0.000031 3.008368 -5.000203 7.999142 -0.000105 -101.877688 -170.388426 -3.033668 -179.999991 0.000005 -0.686005 100.549517 3.126090 -1.177670 -0.000000 -0.000002 1.566099 63.698706 5.849392 4.824673 25.456957 -7.355622 0.000003 -99.469814 181.120620 -2.525796 -0.000020 -0.000004 -1.008510 -79.474100 -0.805256 2.368678 0.000001 -0.000001 -1.566100 64.247573 -5.848397 -4.827510 25.456952 7.355611 0.000001 
52.670902 10.406389 59.048702 17.945677 -2.385214 7.549562 1.264441 0.896082 -0.031377 6.533112 1.789989 -0.091225 8.178540 1.788773 -0.112670 -1.279029 -5.964135 -3.543921 4.248586 1.985634 -2.870338 -7.955860 -63.930195 -9.747680 -48.314484 -109.440907 -78.356948 0.000002 -0.000006 0.000002 75.897007 -5.421408 -0.450508 -0.000003 0.000006 -3.006349 -5.000172 -7.999833 0.000030 -0.505661 55.719563 0.227583 -63.297159 119.898097 100.586693 0.000002 -0.000000 0.000003 75.333708 9.518091 -1.476923 -0.000000 0.000035 3.008372 -5.000206 7.999142 -0.000102 -101.864560 -170.474746 -2.985129 -179.999991 0.000005 -0.689994 100.425207 3.147387 -1.147193 -0.000000 -0.000001 1.568940 63.682915 5.845049 4.834605 25.456952 -7.355622 0.000003 -99.491821 181.037962 -2.494552 -0.000020 -0.000005 -1.009290 -79.629781 -0.846245 2.336635 0.000001 -0.000001 -1.572280 64.230395 -5.847826 -4.828802 25.456955 7.355611 0.000002 
52.642506 10.462290 58.914406 17.763247 -2.335605 7.500346 1.245048 0.888815 -0.027711 6.494231 1.775610 -0.083359 8.139639 1.774484 -0.104631 -1.165225 -5.950698 -3.513959 4.235711 1.972014 -2.845931 -7.838049 -63.939771 -9.613267 -48.628806 -109.524214 -78.690275 0.000002 -0.000005 -0.000000 75.799766 -5.519957 -0.368979 0.000001 0.000003 -3.006351 -5.000175 -7.999833 0.000028 -0.548786 55.689275 0.275359 -63.328203 119.983679 100.583579 0.000001 -0.000001 0.000001 75.219459 9.602814 -1.553490 0.000003 0.000035 3.008371 -5.000211 7.999143 -0.000107 -101.849308 -170.562173 -2.934506 -179.999991 0.000005 -0.694994 100.302981 3.167340 -1.116620 -0.000000 -0.000002 1.571690 63.667683 5.840864 4.844044 25.456953 -7.355623 0.000003 -99.512694 180.954128 -2.462125 -0.000020 -0.000005 -1.009900 -79.782627 -0.887092 2.304258 0.000001 -0.000001 -1.578360 64.213101 -5.847186 -4.830185 25.456955 7.355613 0.000003 
52.612309 10.510592 58.786503 17.580434 -2.285205 7.451479 1.225816 0.881429 -0.024354 6.455682 1.760980 -0.076119 8.101088 1.759943 -0.097216 -1.049859 -5.934751 -3.482814 4.219186 1.956767 -2.820466 -7.720373 -63.951334 -9.479151 -48.950528 -109.610295 -79.029701 0.000001 -0.000006 0.000004 75.701917 -5.620032 -0.286756 -0.000000 0.000002 -3.006349 -5.000177 -7.999832 0.000026 -0.593828 55.663870 0.326008 -63.367551 120.069357 100.586966 0.000002 0.000000 -0.000001 75.104842 9.687760 -1.630120 -0.000001 0.000033 3.008369 -5.000205 7.999141 -0.000105 -101.830976 -170.648492 -2.883175 -179.999991 0.000005 -0.698996 100.183678 3.186060 -1.086961 0.000000 -0.000001 1.574380 63.652910 5.836902 4.853008 25.456955 -7.355623 0.000003 -99.530644 180.870922 -2.428063 -0.000020 -0.000005 -1.010450 -79.931375 -0.927415 2.271850 0.000001 -0.000001 -1.584330 64.196019 -5.846542 -4.831657 25.456952 7.355611 0.000002 
52.558502 10.566389 58.707008 17.397156 -2.235119 7.404399 1.206991 0.874038 -0.021373 6.417964 1.746314 -0.069645 8.063358 1.745363 -0.090567 -0.934844 -5.916019 -3.451305 4.200380 1.939970 -2.794727 -7.606800 -63.965008 -9.349896 -49.280327 -109.698084 -79.376340 0.000002 -0.000005 0.000003 75.603740 -5.720964 -0.204229 0.000001 0.000005 -3.006350 -5.000173 -7.999829 0.000030 -0.639784 55.645541 0.378595 -63.417740 120.155650 100.599022 0.000002 0.000000 -0.000001 74.989467 9.773425 -1.707210 -0.000002 0.000031 3.008367 -5.000206 7.999144 -0.000106 -101.808273 -170.731657 -2.832846 -179.999991 0.000005 -0.702999 100.067701 3.203945 -1.058294 -0.000000 -0.000001 1.577029 63.638833 5.833300 4.861120 25.456948 -7.355622 0.000003 -99.544038 180.790135 -2.394319 -0.000020 -0.000005 -1.011010 -80.074802 -0.966834 2.239753 0.000001 -0.000001 -1.590189 64.179360 -5.845986 -4.832921 25.456952 7.355612 0.000001 
52.531704 10.611790 58.576202 17.212821 -2.186458 7.360529 1.188815 0.866752 -0.018838 6.381558 1.731849 -0.064080 8.026952 1.730964 -0.084830 -0.822074 -5.894227 -3.420227 4.180688 1.921717 -2.769533 -7.501400 -63.981278 -9.230196 -49.614682 -109.787846 -79.726292 0.000002 -0.000005 0.000002 75.505603 -5.822008 -0.122095 0.000001 0.000004 -3.006347 -5.000176 -7.999832 0.000029 -0.685650 55.636385 0.432196 -63.482469 120.242284 100.623221 0.000000 -0.000000 0.000001 74.873312 9.860148 -1.784908 0.000001 0.000033 3.008370 -5.000204 7.999147 -0.000106 -101.780009 -170.809603 -2.782333 -179.999991 0.000005 -0.707001 99.955707 3.221073 -1.030622 0.000000 -0.000001 1.579660 63.625234 5.830102 4.868400 25.456953 -7.355621 0.000003 -99.551011 180.713528 -2.360209 -0.000020 -0.000005 -1.011670 -80.211747 -1.004962 2.208294 0.000001 -0.000001 -1.595930 64.163357 -5.845604 -4.833796 25.456953 7.355612 0.000001 
52.498005 10.667789 58.470806 17.027139 -2.140376 7.321315 1.171540 0.859686 -0.016812 6.346955 1.717803 -0.059566 7.992343 1.716969 -0.080147 -0.713436 -5.869129 -3.390378 4.161462 1.902106 -2.745669 -7.408173 -64.000362 -9.124614 -49.956379 -109.877813 -80.082725 0.000002 -0.000005 0.000002 75.407870 -5.922476 -0.040541 -0.000001 0.000004 -3.006347 -5.000172 -7.999832 0.000030 -0.730463 55.638724 0.485910 -63.567341 120.329000 100.665247 0.000001 0.000000 -0.000001 74.756161 9.948365 -1.863632 0.000002 0.000032 3.008369 -5.000210 7.999145 -0.000105 -101.745018 -170.880186 -2.733982 -179.999991 0.000005 -0.711004 99.848336 3.237743 -1.005029 -0.000000 -0.000001 1.582309 63.612482 5.827421 4.874456 25.456950 -7.355621 0.000003 -99.549973 180.642944 -2.329281 -0.000020 -0.000004 -1.012510 -80.341050 -1.041427 2.177793 0.000001 -0.000001 -1.601529 64.148331 -5.845468 -4.834072 25.456957 7.355613 0.000002 
52.478104 10.716289 58.354408 16.839830 -2.098031 7.288145 1.155409 0.852952 -0.015363 6.314646 1.704403 -0.056241 7.960025 1.703616 -0.076662 -0.610838 -5.840472 -3.362551 4.144101 1.881222 -2.723917 -7.331222 -64.022676 -9.037898 -50.303489 -109.967357 -80.443817 0.000002 -0.000007 0.000003 75.310875 -6.021598 0.039650 -0.000002 0.000005 -3.006351 -5.000176 -7.999833 0.000030 -0.773236 55.654666 0.538839 -63.671433 120.416973 100.723263 0.000000 -0.000001 0.000001 74.637678 10.038655 -1.943868 -0.000001 0.000034 3.008369 -5.000209 7.999140 -0.000104 -101.702077 -170.941371 -2.688310 -179.999991 0.000005 -0.715007 99.746006 3.254370 -0.979520 0.000000 -0.000001 1.584990 63.600556 5.825310 4.879198 25.456953 -7.355622 0.000004 -99.539127 180.580107 -2.301302 -0.000020 -0.000005 -1.013630 -80.461520 -1.075862 2.148603 0.000001 -0.000001 -1.607000 64.134602 -5.845651 -4.833650 25.456953 7.355613 0.000002 
52.468102 10.773890 58.237000 16.650377 -2.060602 7.262428 1.140661 0.846663 -0.014559 6.285109 1.691875 -0.054243 7.930489 1.691100 -0.074513 -0.516170 -5.808006 -3.337536 4.129968 1.859174 -2.705090 -7.274574 -64.048548 -8.974650 -50.653123 -110.056853 -80.806383 0.000001 -0.000007 0.000004 75.214965 -6.118681 0.118288 -0.000000 0.000007 -3.006349 -5.000173 -7.999831 0.000028 -0.813006 55.686317 0.590091 -63.801514 120.505273 100.804494 -0.000000 -0.000000 0.000000 74.517808 10.131329 -2.025658 -0.000002 0.000033 3.008369 -5.000211 7.999144 -0.000102 -101.650147 -170.990890 -2.645182 -179.999991 0.000005 -0.718995 99.649509 3.271127 -0.955184 0.000000 -0.000002 1.587720 63.589478 5.823855 4.882451 25.456953 -7.355622 0.000003 -99.516649 180.526804 -2.276865 -0.000020 -0.000004 -1.015110 -80.571978 -1.107896 2.121072 0.000001 -0.000001 -1.612319 64.122315 -5.846306 -4.832162 25.456952 7.355612 0.000002 
52.457905 10.819388 58.130104 16.458516 -2.029294 7.245538 1.127540 0.840933 -0.014467 6.258863 1.680430 -0.053710 7.904234 1.679668 -0.073843 -0.431328 -5.771518 -3.316127 4.120450 1.836056 -2.689975 -7.242320 -64.078198 -8.939579 -51.005858 -110.145106 -81.171163 0.000000 -0.000005 0.000001 75.120381 -6.213018 0.194896 0.000001 0.000004 -3.006350 -5.000179 -7.999827 0.000031 -0.848819 55.736065 0.638781 -63.959797 120.594448 100.910554 0.000001 0.000001 -0.000002 74.396299 10.226913 -2.109484 -0.000000 0.000033 3.008369 -5.000203 7.999144 -0.000104 -101.587862 -171.026803 -2.605347 -179.999991 0.000005 -0.722998 99.559337 3.288280 -0.933030 0.000001 -0.000001 1.590530 63.579287 5.823192 4.883942 25.456952 -7.355622 0.000003 -99.480811 180.484825 -2.257427 -0.000020 -0.000005 -1.017040 -80.671139 -1.137177 2.095546 0.000001 -0.000001 -1.617480 64.111762 -5.847417 -4.829585 25.456950 7.355611 0.000002 
